<svg xmlns="http://www.w3.org/2000/svg" width="141" height="134" viewBox="0 0 141 134" fill="none">
  <g clip-path="url(#clip0_976_358)">
    <path d="M57.7359 0.176208C57.4947 0.274902 56.113 0.680634 54.6655 1.09732C51.7158 1.94168 50.8933 2.23775 49.6213 2.87376C47.5159 3.92645 46.3426 5.26427 45.7285 7.31484L45.4873 8.10436L44.4894 8.74037C43.9302 9.08031 42.6691 9.90273 41.6712 10.5607C40.6734 11.2186 39.8181 11.7888 39.7523 11.8217C39.6974 11.8546 39.7632 11.7449 39.8948 11.5695C40.8708 10.3085 41.7699 8.64168 42.3292 7.07359C42.6801 6.05379 43.8863 1.53595 43.7986 1.53595C43.5135 1.53595 39.7961 3.9155 38.4364 4.97916C37.4385 5.74675 35.7169 7.49029 35.0041 8.43333C34.1927 9.51893 33.4141 11.0212 33.1071 12.1287C32.7781 13.313 32.7781 14.8044 33.1181 15.7913L33.3593 16.504L32.9865 16.822C31.1442 18.423 29.7845 19.706 28.5673 20.978L27.1089 22.5022L27.6462 21.4605C28.2932 20.1995 28.7537 18.8397 29.0827 17.1949C29.2801 16.1751 29.3239 15.572 29.3239 13.7626C29.3349 11.7559 29.1266 8.68554 28.9621 8.36754C28.9182 8.29078 28.4906 8.72941 27.9094 9.4641C23.0297 15.5171 22.1086 17.2168 21.7028 20.8903C21.4397 23.3795 22.0318 26.735 22.7555 26.8446C22.8981 26.8666 23.2709 26.6253 23.7753 26.2086L24.5758 25.5287L23.5999 26.8337C21.9989 28.95 19.8277 32.3165 19.0163 33.9065C18.8627 34.2135 18.7202 34.4328 18.6873 34.4109C18.6654 34.378 18.6983 34.0929 18.7531 33.7639C18.9724 32.6345 19.0601 30.8032 18.9724 29.3558C18.8408 27.2394 18.6434 26.4499 17.0315 21.3837C16.6915 20.331 16.3845 19.4209 16.3406 19.377C16.2529 19.2783 16.0994 19.7499 14.8055 23.7962C13.5005 27.9083 13.0619 29.6628 12.8316 31.8011C12.5356 34.4438 13.04 36.4834 14.6848 39.4003L15.4086 40.6942L15.7266 40.3323C15.902 40.135 16.0117 40.0472 15.9788 40.135C15.9459 40.2227 15.7266 40.7929 15.4853 41.407C14.9041 42.8325 14.2791 44.6638 13.7637 46.3854C13.5444 47.142 13.3361 47.8328 13.3032 47.9206C13.2703 48.0083 13.1277 47.5916 12.9961 46.9885C12.393 44.4006 11.2197 41.6373 9.82706 39.5428C9.26781 38.6875 8.46732 37.4374 8.06159 36.7685C7.3269 35.5404 6.976 35.1017 6.84441 35.2333C6.80055 35.2772 6.72379 36.2093 6.67993 37.3058C6.6251 38.4134 6.53737 40.0034 6.47158 40.8477C6.31806 43.0847 6.33999 46.6814 6.52641 48.0302C7.03083 51.7695 8.17125 53.9188 10.4411 55.3882C10.814 55.6294 11.2307 55.8487 11.3732 55.8816C11.6693 55.9584 11.6693 55.8706 11.4609 57.7677C11.2636 59.599 11.0771 62.5377 11.0771 63.8755V64.8625L10.4631 63.722C9.27878 61.496 7.30497 58.5572 5.97813 57.0549C5.28729 56.2764 1.62477 53.2937 1.35063 53.2937C1.23001 53.2937 1.19711 53.3705 1.24097 53.535C1.38353 54.2039 2.00857 57.3949 2.31561 59.0507C3.58762 65.97 5.5066 69.5667 9.21299 72.0011C10.0025 72.5165 11.3732 73.2731 11.5925 73.306C11.6035 73.306 11.7131 73.9749 11.8447 74.7864C12.1408 76.6505 12.6343 79.0191 13.04 80.6091C13.2154 81.278 13.3251 81.7824 13.2812 81.7386C13.2374 81.6837 12.9742 81.3438 12.7001 80.9819C11.4719 79.359 10.5289 78.6243 4.11397 74.3258C2.46912 73.2292 0.0566855 71.8147 0.0237886 71.9243C-0.020074 72.0559 4.05914 80.3021 4.99122 81.9688C6.13164 83.9865 6.74572 84.8199 8.06159 86.1358C9.37747 87.4626 10.9127 88.5592 12.3053 89.1952C13.6431 89.7983 15.3757 90.3575 15.9349 90.3575C16.2968 90.3575 16.4503 90.4014 16.4503 90.5001C16.4503 90.9058 19.6303 96.9369 20.6721 98.5269C20.8475 98.7901 20.7488 98.7353 20.1238 98.2309C18.9614 97.2988 17.5798 96.4654 15.5182 95.4566C13.2922 94.371 12.086 93.9433 9.44326 93.2634C8.35767 92.9893 6.93214 92.5726 6.28516 92.3423C4.44294 91.6844 4.41004 91.805 5.95619 93.6692C6.57027 94.4039 7.59007 95.6868 8.21511 96.4983C10.6385 99.6454 14.7945 103.33 17.1411 104.394C18.1171 104.832 20.1128 105.424 21.4287 105.655C22.2731 105.808 22.8104 105.83 23.8631 105.775C24.6087 105.742 25.3325 105.666 25.475 105.611C25.7163 105.512 25.8259 105.6 26.6154 106.51C28.5235 108.703 31.2978 111.412 33.447 113.188C33.8528 113.517 33.5457 113.396 31.7583 112.486C29.3239 111.258 29.0937 111.192 25.6614 110.71C20.069 109.92 13.7089 109.416 13.7089 109.756C13.7089 109.909 14.3668 110.425 16.7244 112.124C20.8037 115.074 22.602 116.16 24.8938 117.037C28.1068 118.276 29.7735 118.649 32.186 118.649C34.3681 118.649 35.8924 118.353 37.7017 117.585C38.6009 117.201 38.6009 117.19 38.4145 116.971C38.3048 116.851 38.5351 116.96 38.9298 117.223C41.0133 118.627 45.7724 121.182 47.9436 122.048C48.2945 122.191 48.5577 122.322 48.5467 122.344C48.5248 122.366 47.9875 122.289 47.3624 122.191C46.5181 122.059 45.5421 122.004 43.6451 122.004C40.3115 122.004 39.9716 122.048 33.1181 123.353C31.8789 123.583 30.0696 123.923 29.0937 124.099C28.1068 124.263 27.3172 124.45 27.3392 124.505C27.394 124.658 35.8704 127.169 37.3398 127.465C39.4672 127.893 40.8817 128.003 43.3929 127.937C47.6037 127.827 50.0929 127.005 52.4176 124.965L53.4483 124.066L54.8739 124.472C56.5297 124.943 58.7776 125.448 60.4005 125.733L61.53 125.93L60.7405 126.127C58.657 126.676 57.4727 127.191 51.2662 130.272C46.551 132.619 44.8513 133.529 44.8513 133.694C44.8513 133.913 51.2442 133.672 54.0624 133.343C57.2095 132.959 60.6418 131.972 63.3284 130.656C64.9403 129.867 66.1575 128.891 67.4405 127.388L68.1532 126.544H70.3025H72.4518L73.976 127.981C76.8051 130.656 77.2328 130.887 82.0248 132.334C85.0403 133.244 85.6105 133.332 91.7184 133.738C96.3788 134.045 96.5433 134.034 95.8524 133.452C95.4248 133.091 92.9575 131.841 91.8609 131.424C90.8521 131.051 90.1722 130.7 88.8783 129.889C86.4768 128.386 83.0336 126.961 79.8645 126.16C79.4259 126.051 79.075 125.941 79.0969 125.93C79.1079 125.919 80.1058 125.711 81.312 125.459C83.4942 125.02 85.9395 124.384 87.5076 123.869C88.0668 123.682 88.2532 123.649 88.0888 123.77C87.9462 123.858 87.8366 124.055 87.8366 124.187C87.8366 124.855 90.5231 126.533 92.8698 127.312C94.405 127.827 95.7647 127.992 98.5829 128.003C100.644 128.003 101.258 127.97 102.311 127.772C104.428 127.378 111.193 125.393 112.323 124.823C112.718 124.625 112.696 124.395 112.268 124.252C111.72 124.088 107.783 123.309 105.327 122.882C100.447 122.037 97.7604 121.763 95.984 121.939C94.1089 122.125 91.8829 122.52 90.7424 122.871C89.7117 123.178 89.9748 123.024 91.5649 122.388C92.4421 122.037 94.1199 121.281 95.2932 120.699C102.717 117.048 109.176 111.949 114.779 105.315C115.229 104.788 115.24 104.777 115.218 105.106C115.185 105.545 115.591 105.72 116.797 105.797C119.275 105.94 122.959 104.909 125.12 103.461C128.925 100.928 130.679 99.2726 132.697 96.3119C133.64 94.9412 134.912 93.4937 135.954 92.6165C136.338 92.2985 136.37 92.0791 136.02 92.0243C135.899 92.0134 135.044 92.2107 134.112 92.4849C133.179 92.759 131.71 93.1538 130.866 93.3621C128.98 93.8336 127.916 94.2284 126.139 95.0728C123.563 96.3009 121.161 97.858 119.494 99.3603C118.639 100.139 118.617 100.15 118.935 99.6783C120.383 97.562 122.828 93.0989 123.749 90.9058C123.913 90.5111 124.067 90.1711 124.089 90.1492C124.111 90.1273 124.231 90.1931 124.352 90.3027C124.539 90.4782 124.637 90.4891 125.164 90.3795C126.743 90.0615 129.583 88.7346 131.096 87.6161C132.258 86.7499 133.651 85.3572 134.309 84.3922C135.329 82.9119 138.443 76.9685 139.803 73.8981C140.351 72.659 140.461 72.2643 140.263 72.2643C140.033 72.2643 135.175 75.3346 132.456 77.2098C129.923 78.9423 128.453 80.324 127.258 82.0785C126.973 82.4952 126.732 82.8571 126.721 82.868C126.699 82.8899 126.863 82.2978 127.061 81.5521C127.686 79.2823 128.387 75.8829 128.684 73.6788C128.738 73.2073 128.76 73.1854 129.045 73.2292C129.254 73.2512 129.627 73.1196 130.197 72.8345C133.026 71.3651 134.813 69.5448 136.228 66.7266C137.335 64.5006 137.884 62.6035 138.651 58.3379C138.936 56.8027 139.287 55.0921 139.441 54.5328C139.879 52.9648 139.737 52.7783 138.761 53.6008C137.818 54.3903 134.44 57.8664 133.136 59.3796C131.403 61.3973 130.361 63.097 129.605 65.1256L129.298 65.959L129.287 64.4787C129.287 62.0882 128.903 56.9562 128.662 55.9255L128.596 55.6513L128.859 55.8926C129.1 56.1119 129.155 56.1119 129.539 55.9803C130.087 55.7939 131.019 55.0592 131.809 54.2039C133.87 51.9559 134.78 47.7561 134.462 41.9772C134.331 39.488 134.013 35.354 133.936 35.1017C133.837 34.7728 130.098 41.0561 128.958 43.4466C127.993 45.5081 127.872 46.1112 127.85 49.0171L127.839 51.0458L127.576 50.004C127.039 47.8877 126.622 46.4183 126.139 44.916C125.602 43.2382 124.188 39.5757 123.683 38.5778C123.146 37.5142 123.332 37.7116 124.023 38.9507C124.758 40.2556 124.988 40.4639 125.394 40.2008C126.392 39.5428 127.971 35.6281 128.157 33.3692C128.19 32.9305 128.157 32.1958 128.091 31.7243C127.784 29.7724 126.765 25.9783 125.646 22.6667C124.944 20.5723 124.824 20.2872 124.615 20.2872C124.275 20.2872 122.729 24.0155 122.312 25.8796C121.929 27.5464 121.929 34.3561 122.312 35.3868C122.4 35.65 122.455 35.8584 122.433 35.8584C122.411 35.8584 122.115 35.332 121.775 34.6851C119.736 30.88 117.17 27.1188 114.187 23.5878C112.86 22.0088 109.428 18.5546 107.969 17.3155C107.125 16.6027 106.928 16.3834 107.092 16.3505C107.432 16.2957 107.542 16.1422 107.673 15.6049C107.838 14.9688 107.849 12.8415 107.684 12.1178C107.465 11.098 106.994 10.1988 105.886 8.71844C104.987 7.51222 102.585 5.14365 101.324 4.21156C100.129 3.32335 97.6289 1.75526 97.4095 1.75526C97.1902 1.75526 97.2341 2.40224 97.5521 3.65231C97.892 5.03398 98.6158 7.45739 98.8789 8.11533C99.3395 9.26672 100.261 10.6703 101.544 12.1945L102.037 12.7757L101.653 12.5235C100.765 11.9423 100.041 11.5366 97.8153 10.3194L95.4577 9.03645L95.3809 8.3785C95.1287 6.07572 93.1987 3.8168 90.3477 2.479C89.3717 2.01843 83.56 0.198151 82.5731 0.044632C82.2002 -0.0211639 82.1344 0.000762939 82.1344 0.165253C82.1344 0.669662 85.15 4.5515 86.9045 6.31696C88.5822 8.00568 90.3038 8.95969 92.6176 9.48603L93.747 9.73824L96.2472 11.4598C97.8262 12.5454 98.6267 13.1595 98.4184 13.1157C96.7955 12.7867 94.9752 12.7538 93.2974 13.0389C90.4464 13.5323 85.8847 14.9688 85.4241 15.5171C85.139 15.8571 85.9066 16.0325 89.273 16.3944C90.6876 16.5369 92.4312 16.7453 93.1549 16.844C96.0059 17.2168 101.894 17.151 103.134 16.7124C103.66 16.5369 103.616 16.504 105.689 18.2476C107.52 19.7718 108.112 20.3201 107.849 20.2323C105.469 19.388 101.938 18.9932 98.5171 19.1906C96.642 19.2893 96.0608 19.4209 96.0608 19.7389C96.0608 19.9801 96.313 20.1446 97.4315 20.6161C97.914 20.8135 99.6685 21.614 101.324 22.3816C106.61 24.816 108.496 25.3862 112.038 25.6165L113.178 25.6932L113.595 26.1976C114.702 27.5464 117.115 30.8142 117.115 30.9787C117.115 31.0116 116.885 30.869 116.599 30.6607C115.766 30.0685 113.869 29.1035 112.498 28.5882C109.066 27.2832 105.162 26.395 105.162 26.9104C105.162 26.9981 105.667 27.5135 106.292 28.0508C108.046 29.5751 113.167 33.7968 114.121 34.4986C116.292 36.1106 119.396 37.898 120.613 38.2269L121.315 38.4243L121.698 39.2577C122.62 41.2864 124.166 45.3765 123.881 45.0695C121.83 42.8325 120.722 41.8017 119.494 40.9793C117.17 39.4222 112.707 37.1633 112.443 37.4155C112.334 37.5361 112.707 38.1063 113.562 39.0932C115.185 40.9793 116.556 42.9531 117.86 45.2888C118.255 45.9796 118.891 46.9666 119.286 47.471C120.777 49.39 123.705 52.0546 125.394 53.0415C125.789 53.2718 126.129 53.535 126.161 53.6227C126.271 53.9846 126.776 57.7458 126.929 59.4345C127.083 61.0903 127.137 62.8667 127.017 62.3404C126.644 60.6407 125.514 58.1625 124.582 56.9891C123.705 55.8926 117.597 49.708 117.488 49.8066C117.312 49.9931 119.845 58.0418 120.953 60.8052C122.312 64.2045 124.221 67.3188 126.271 69.5119L126.951 70.2356L126.863 71.1129C126.611 73.5801 125.821 78.394 125.646 78.5805C125.624 78.6024 125.547 78.1089 125.471 77.4949C125.196 75.0386 124.539 73.3279 122.444 69.6983C120.503 66.3099 119.176 64.3251 118.935 64.4019C118.738 64.4677 118.738 65.4546 118.924 68.5908C119.198 73.295 119.516 77.1549 119.757 78.7888C120.076 80.8832 121.501 84.3155 122.74 85.9494L123.256 86.6512L122.641 88.1425C121.698 90.4343 118.891 96.0377 119.242 94.9412C119.275 94.8315 119.363 94.1955 119.429 93.5266C119.615 91.7721 119.494 88.4495 119.198 86.8485C118.321 82.0785 117.137 78.7778 116.534 79.381C116.468 79.4467 116.358 80.0608 116.281 80.7626C116.139 81.9798 115.92 83.0435 114.768 88.0877C113.99 91.5089 113.803 92.7261 113.748 94.7767C113.683 96.9917 113.836 98.0664 114.56 100.15L115.031 101.564L114.461 102.288C113.321 103.747 110.492 107.025 110.371 107.025C110.349 107.025 110.382 106.861 110.437 106.663C111.204 103.999 111.478 99.6125 111.139 95.2921C111.04 93.9323 110.93 92.8138 110.919 92.7919C110.897 92.77 110.579 93.3621 110.206 94.1078C109.022 96.4215 107.158 99.777 106.412 100.917C104.296 104.152 103.759 105.951 103.495 110.797L103.364 113.276L101.829 114.35C99.8878 115.71 97.267 117.366 97.1793 117.278C97.1573 117.256 97.3109 117.004 97.5192 116.708C98.7474 114.986 100.052 111.993 100.721 109.328C101.017 108.177 101.576 104.887 101.522 104.701C101.467 104.547 95.6112 110.216 94.0102 111.971C90.556 115.776 89.5362 117.497 89.1086 120.283L88.977 121.105L87.3431 121.642C86.433 121.939 84.9636 122.377 84.0534 122.607L82.4086 123.024L82.902 122.629C84.7442 121.138 87.2444 118.013 88.3848 115.754C88.7467 115.041 89.2511 113.528 89.2621 113.144C89.2621 113.1 88.6809 113.341 87.9791 113.681C86.1588 114.537 85.3254 114.888 83.0665 115.743C79.5575 117.059 78.2745 117.848 76.5858 119.756C75.0506 121.489 74.0747 123.134 74.1624 123.814L74.2172 124.208L73.5483 124.285C73.1865 124.318 71.5636 124.351 69.9516 124.351C67.7256 124.351 66.9909 124.318 66.9251 124.208C66.8812 124.143 66.6181 123.55 66.333 122.904C66.0588 122.257 65.6531 121.445 65.4557 121.105C64.0521 118.791 61.9248 117.322 57.6811 115.743C55.3454 114.866 53.876 114.241 52.5601 113.528C51.9351 113.199 51.4307 112.98 51.4307 113.034C51.4307 113.32 51.9351 114.723 52.275 115.414C53.4374 117.717 56.3213 121.292 58.1416 122.684C58.4377 122.904 58.6351 123.101 58.5803 123.123C58.3609 123.189 53.7115 121.928 52.1434 121.357L51.7048 121.204L51.628 120.403C51.3539 117.772 50.367 115.995 47.3405 112.727C46.5839 111.916 44.4565 109.712 42.6143 107.848L39.2478 104.448L39.3136 104.942C39.7632 108.286 40.783 112.026 41.9015 114.372C42.4827 115.578 42.8665 116.236 43.5683 117.212L43.996 117.794L43.4696 117.487C41.3752 116.291 37.5043 113.758 37.3398 113.495C37.3069 113.451 37.3727 113.002 37.4714 112.497C38.0526 109.416 36.5942 104.317 33.8857 100.018C33.1071 98.7901 31.4513 95.7855 30.5302 93.9433C30.267 93.417 30.0038 92.9893 29.949 92.9893C29.7297 92.9893 29.631 101.235 29.8284 103.659C29.96 105.271 30.2341 106.411 30.7056 107.376L31.0456 108.067L30.4753 107.519C29.642 106.707 27.4598 104.251 26.44 102.979L25.5627 101.871L25.7711 101.51C26.3523 100.588 26.9444 97.8142 27.0541 95.5552C27.1528 93.4718 26.8457 91.4651 25.5408 85.6972C24.7184 82.1114 24.3456 80.1705 24.3456 79.5125C24.3456 79.03 24.192 78.734 24.0166 78.9094C23.9508 78.9752 23.6986 79.4796 23.4683 80.0279C22.3388 82.6597 20.9462 89.4803 21.0888 91.7282C21.1546 92.6274 21.6151 95.632 21.7796 96.1255C21.8125 96.2461 21.5822 95.9171 21.2752 95.4017C20.4857 94.0968 18.446 89.9408 17.7223 88.1644L17.1302 86.695L17.503 86.4099C18.7202 85.4998 20.4857 81.914 20.8914 79.5235C21.3848 76.6286 22.2073 65.0379 21.9331 64.7638C21.637 64.4677 20.069 66.6608 18.1938 70.0163C16.0665 73.8323 15.4086 75.8719 15.255 79.1178L15.1893 80.653L14.937 79.6112C14.3668 77.2755 13.8295 74.2271 13.5992 72.0449C13.5334 71.4089 13.4567 70.751 13.4348 70.5756C13.3909 70.3014 13.4019 70.2795 13.5444 70.4001C13.7857 70.5975 14.0269 70.3453 15.5182 68.3715C17.1302 66.2222 18.5338 64.1278 18.9724 63.2066C19.3014 62.5048 20.4637 59.3796 20.705 58.5572C20.7598 58.3489 21.023 57.5374 21.2642 56.7589C21.9221 54.7083 22.9968 51.1225 23.1174 50.5742C23.1832 50.322 23.1832 50.1137 23.1393 50.1137C22.8652 50.1137 18.0074 54.8728 16.867 56.2544C15.2002 58.2721 14.0488 60.7065 13.4348 63.5247C13.3251 63.9962 13.2264 64.358 13.2045 64.3361C13.1277 64.2703 13.3799 59.8731 13.5334 58.3927C13.6212 57.6032 13.7966 56.2106 13.9392 55.2895C14.1366 53.9407 14.2133 53.6227 14.3559 53.6227C14.619 53.6227 15.3318 53.1841 16.4722 52.3397C19.093 50.3878 21.023 48.1508 24.4004 43.1505C25.2886 41.8237 26.5825 39.9924 27.2734 39.0823C27.9532 38.1721 28.5125 37.3497 28.5125 37.251C28.5125 37.0098 28.1616 37.1304 26.7909 37.8212C24.2578 39.0932 20.5185 41.4179 19.2465 42.5035C18.446 43.1944 17.2508 44.5541 16.4722 45.6616C16.22 46.0235 16.0117 46.2867 16.0117 46.2538C16.0117 45.9029 17.6675 41.5057 18.4899 39.6305L18.9834 38.534L19.6194 38.4024C20.7817 38.1611 23.4354 36.7466 25.9904 35.014C27.7888 33.7859 28.9182 32.9086 30.6508 31.3625C31.4403 30.6607 32.7233 29.5751 33.5019 28.9281C35.2125 27.5355 35.5524 27.2065 35.5086 26.9872C35.4537 26.713 34.3901 26.7898 32.7343 27.1846C29.1924 28.0289 26.2865 29.29 23.8631 31.0225C23.3915 31.3625 22.8981 31.7134 22.7775 31.8011C22.3059 32.141 25.7492 27.2832 26.9115 25.9893C27.1966 25.6713 27.2185 25.6603 28.2493 25.6603C31.1004 25.6603 34.3023 24.816 37.8881 23.1163C38.9189 22.6338 40.5637 21.8662 41.5616 21.4276C44.1933 20.2543 44.5771 20.0569 44.61 19.7828C44.632 19.5963 44.5552 19.5196 44.2811 19.4099C43.3051 19.07 38.1293 19.0919 35.8595 19.4538C34.8177 19.6183 33.2496 20.035 32.4821 20.342L32.0763 20.5065L32.6246 20.013C33.447 19.2674 35.4976 17.5458 36.2542 16.9756L36.9122 16.4711L37.7894 16.7234C39.9387 17.3374 43.0858 17.3594 47.7572 16.7782C51.4087 16.3286 53.4045 16.1202 54.1611 16.1093C54.8519 16.1093 55.4989 15.9229 55.5757 15.7035C55.6744 15.3746 51.968 13.971 49.6104 13.4446C48.9524 13.2911 47.9326 13.1157 47.3405 13.0389C45.9807 12.8744 42.7568 12.9731 41.8357 13.2034C41.4739 13.2911 41.1668 13.3459 41.1559 13.335C41.1449 13.324 41.5616 12.9841 42.0879 12.5893C42.6143 12.1945 43.6999 11.3721 44.5004 10.758C45.3118 10.1549 46.0136 9.68341 46.0685 9.71631C46.2987 9.8479 48.5028 9.51893 49.3362 9.22285C51.1456 8.58685 53.1084 7.15035 55.0822 5.02303C57.6701 2.22679 58.9092 0.406494 58.4377 0.0994568C58.2513 -0.0211639 58.2732 -0.0211639 57.7359 0.176208Z" fill="#8C6537"/>
    <path d="M111.578 9.43135C111.6 10.2428 111.655 11.9973 111.688 13.3241C111.765 16.2629 111.918 17.9736 112.193 19.0701C112.478 20.1886 113.552 22.3269 114.419 23.4674C115.405 24.7832 117.642 26.8667 118.059 26.8667C118.904 26.8667 119.441 21.8444 118.86 19.2456C118.41 17.1731 117.346 15.1225 115.493 12.721C114.791 11.8219 112.445 8.98176 111.82 8.29092L111.513 7.95099L111.578 9.43135Z" fill="#8C6537"/>
    <path d="M123.914 109.842C117.104 110.324 115.054 110.576 112.608 111.19C109.648 111.936 107.498 112.978 104.91 114.897C103.2 116.169 102.739 116.772 103.024 117.342C103.441 118.132 106.884 118.877 109.384 118.713C112.268 118.515 115.624 117.419 118.508 115.73C121.819 113.789 126.568 110.554 126.732 110.127C126.765 110.039 126.732 109.918 126.644 109.864C126.502 109.776 125.01 109.765 123.914 109.842Z" fill="#8C6537"/>
  </g>
  <defs>
    <clipPath id="clip0_976_358">
      <rect width="140.36" height="134" fill="white"/>
    </clipPath>
  </defs>
</svg>