<svg width="247" height="236" viewBox="0 0 247 236" fill="none" xmlns="http://www.w3.org/2000/svg">
<path d="M101.598 0.309006C101.174 0.482681 98.7422 1.19667 96.195 1.92995C91.0042 3.4158 89.5569 3.93681 87.3185 5.05605C83.6135 6.90854 81.5487 9.26276 80.4681 12.8713L80.0436 14.2607L78.2875 15.3799C77.3034 15.9781 75.0843 17.4253 73.3282 18.5831C71.5722 19.741 70.0671 20.7444 69.9513 20.8023C69.8548 20.8602 69.9706 20.6672 70.2021 20.3585C71.9196 18.1393 73.5019 15.2062 74.4861 12.4467C75.1036 10.6521 77.2262 2.70183 77.0718 2.70183C76.5701 2.70183 70.0285 6.88924 67.6357 8.76103C65.8796 10.1118 62.85 13.18 61.5957 14.8396C60.1678 16.7499 58.7977 19.3936 58.2574 21.3426C57.6785 23.4267 57.6785 26.051 58.2767 27.7878L58.7012 29.0421L58.0451 29.6017C54.8032 32.419 52.4104 34.6767 50.2685 36.9152L47.702 39.5974L48.6475 37.7642C49.7861 35.5451 50.5965 33.1523 51.1754 30.2578C51.5228 28.4632 51.6 27.4018 51.6 24.2178C51.6193 20.6865 51.2526 15.2834 50.9632 14.7238C50.886 14.5887 50.1334 15.3606 49.1107 16.6535C40.5236 27.3053 38.9026 30.2964 38.1886 36.7608C37.7255 41.1412 38.7675 47.046 40.0411 47.239C40.292 47.2776 40.9481 46.8531 41.8357 46.1198L43.2444 44.9234L41.527 47.2197C38.7096 50.944 34.8889 56.8681 33.4609 59.6662C33.1907 60.2065 32.9399 60.5925 32.882 60.5538C32.8434 60.496 32.9013 59.9942 32.9978 59.4153C33.3837 57.4278 33.5381 54.2052 33.3837 51.658C33.1521 47.9337 32.8048 46.5443 29.9682 37.6292C29.37 35.7767 28.8296 34.175 28.7525 34.0978C28.5981 33.9242 28.3279 34.7539 26.0509 41.8745C23.7546 49.1108 22.9827 52.1983 22.5775 55.9612C22.0564 60.6117 22.9441 64.201 25.8386 69.3339L27.1122 71.611L27.6718 70.9742C27.9806 70.6268 28.1735 70.4724 28.1157 70.6268C28.0578 70.7812 27.6718 71.7846 27.2473 72.8653C26.2246 75.3739 25.1246 78.5964 24.2177 81.626C23.8318 82.9575 23.4651 84.1732 23.4072 84.3276C23.3493 84.482 23.0985 83.7487 22.8669 82.6874C21.8056 78.1333 19.7408 73.2705 17.2901 69.5848C16.306 68.0796 14.8973 65.8798 14.1833 64.7027C12.8904 62.5414 12.2729 61.7696 12.0414 62.0011C11.9642 62.0783 11.8291 63.7185 11.7519 65.6482C11.6554 67.5972 11.501 70.3953 11.3853 71.8811C11.1151 75.8177 11.1537 82.147 11.4818 84.5206C12.3694 91.1008 14.3763 94.883 18.3707 97.4688C19.0268 97.8933 19.7601 98.2793 20.011 98.3371C20.532 98.4722 20.532 98.3178 20.1653 101.656C19.818 104.879 19.49 110.05 19.49 112.405V114.141L18.4093 112.134C16.3253 108.217 12.8518 103.046 10.5169 100.402C9.30121 99.0318 2.85605 93.7831 2.37363 93.7831C2.16136 93.7831 2.10347 93.9182 2.18066 94.2076C2.43152 95.3847 3.53144 101 4.07175 103.914C6.31019 116.09 9.68714 122.42 16.2095 126.704C17.5989 127.61 20.011 128.942 20.3969 129C20.4162 129 20.6092 130.177 20.8407 131.605C21.3618 134.885 22.2301 139.054 22.9441 141.852C23.2528 143.029 23.4458 143.916 23.3686 143.839C23.2914 143.743 22.8283 143.144 22.3459 142.508C20.1846 139.652 18.5251 138.359 7.23644 130.794C4.34191 128.865 0.0965944 126.375 0.0387037 126.568C-0.0384838 126.8 7.13995 141.311 8.78019 144.244C10.7871 147.795 11.8677 149.262 14.1833 151.577C16.4989 153.912 19.2005 155.842 21.6512 156.961C24.0054 158.022 27.0543 159.007 28.0385 159.007C28.6753 159.007 28.9454 159.084 28.9454 159.257C28.9454 159.971 34.5415 170.585 36.3747 173.383C36.6835 173.846 36.5098 173.749 35.4099 172.862C33.3644 171.221 30.933 169.755 27.3052 167.98C23.3879 166.069 21.2653 165.317 16.6147 164.12C14.7043 163.638 12.1957 162.904 11.0572 162.499C7.81535 161.341 7.75746 161.554 10.4783 164.834C11.5589 166.127 13.3535 168.385 14.4535 169.813C18.7181 175.351 26.0316 181.835 30.1611 183.707C31.8785 184.478 35.3906 185.52 37.7062 185.926C39.1921 186.196 40.1376 186.234 41.9901 186.138C43.3023 186.08 44.5759 185.945 44.8268 185.848C45.2513 185.675 45.4443 185.829 46.8336 187.431C50.1913 191.29 55.0734 196.057 58.8556 199.183C59.5696 199.762 59.0293 199.549 55.8839 197.948C51.6 195.786 51.1947 195.671 45.1548 194.822C35.3134 193.432 24.1212 192.544 24.1212 193.143C24.1212 193.413 25.279 194.32 29.4278 197.311C36.6063 202.502 39.771 204.412 43.804 205.956C49.458 208.136 52.3911 208.792 56.6364 208.792C60.4765 208.792 63.1588 208.271 66.3428 206.921C67.9251 206.245 67.9251 206.226 67.5971 205.84C67.4041 205.628 67.8093 205.821 68.504 206.284C72.1704 208.754 80.5453 213.25 84.3661 214.774C84.9836 215.025 85.4467 215.257 85.4274 215.295C85.3888 215.334 84.4432 215.199 83.3433 215.025C81.8575 214.794 80.14 214.697 76.8017 214.697C70.9354 214.697 70.3372 214.774 58.2767 217.071C56.0961 217.476 52.9121 218.074 51.1947 218.383C49.458 218.672 48.0686 219 48.1072 219.097C48.2037 219.367 63.1202 223.786 65.706 224.307C69.4496 225.06 71.9389 225.253 76.3578 225.137C83.7679 224.944 88.1482 223.497 92.2392 219.907L94.0531 218.325L96.5617 219.039C99.4755 219.869 103.431 220.757 106.287 221.258L108.275 221.606L106.886 221.953C103.219 222.918 101.135 223.825 90.213 229.247C81.9154 233.377 78.9243 234.978 78.9243 235.268C78.9243 235.654 90.1744 235.229 95.1337 234.65C100.672 233.975 106.712 232.238 111.44 229.923C114.276 228.533 116.418 226.816 118.676 224.172L119.93 222.686H123.712H127.495L130.177 225.214C135.155 229.923 135.908 230.328 144.341 232.875C149.647 234.477 150.651 234.631 161.399 235.345C169.6 235.885 169.89 235.866 168.674 234.843C167.922 234.206 163.58 232.007 161.65 231.273C159.875 230.617 158.678 230 156.401 228.572C152.175 225.928 146.116 223.419 140.539 222.011C139.767 221.818 139.15 221.625 139.188 221.606C139.208 221.586 140.964 221.22 143.086 220.776C146.927 220.004 151.23 218.885 153.989 217.978C154.973 217.65 155.301 217.592 155.012 217.804C154.761 217.958 154.568 218.306 154.568 218.537C154.568 219.714 159.296 222.667 163.425 224.037C166.127 224.944 168.52 225.233 173.479 225.253C177.107 225.253 178.187 225.195 180.04 224.847C183.764 224.153 195.67 220.66 197.658 219.657C198.353 219.309 198.314 218.904 197.562 218.653C196.597 218.364 189.669 216.994 185.347 216.241C176.76 214.755 172.032 214.273 168.906 214.582C165.606 214.91 161.689 215.604 159.682 216.222C157.868 216.762 158.331 216.492 161.129 215.373C162.673 214.755 165.625 213.424 167.69 212.401C180.754 205.975 192.12 197.002 201.981 185.327C202.772 184.401 202.791 184.382 202.752 184.961C202.695 185.733 203.408 186.041 205.531 186.177C209.892 186.427 216.376 184.613 220.177 182.066C226.874 177.609 229.961 174.695 233.512 169.485C235.171 167.073 237.41 164.525 239.243 162.982C239.918 162.422 239.976 162.036 239.359 161.94C239.146 161.92 237.641 162.268 236.001 162.75C234.361 163.233 231.775 163.927 230.289 164.294C226.97 165.124 225.098 165.818 221.972 167.304C217.437 169.465 213.211 172.206 210.278 174.849C208.773 176.219 208.734 176.239 209.294 175.409C211.841 171.685 216.144 163.831 217.765 159.971C218.055 159.277 218.325 158.678 218.364 158.64C218.402 158.601 218.614 158.717 218.827 158.91C219.155 159.219 219.328 159.238 220.255 159.045C223.033 158.485 228.031 156.151 230.694 154.182C232.74 152.658 235.19 150.207 236.348 148.509C238.143 145.904 243.623 135.445 246.016 130.042C246.981 127.861 247.174 127.167 246.826 127.167C246.421 127.167 237.873 132.57 233.087 135.87C228.63 138.918 226.044 141.35 223.94 144.437C223.439 145.171 223.014 145.807 222.995 145.827C222.956 145.865 223.246 144.823 223.593 143.511C224.693 139.517 225.928 133.535 226.449 129.656C226.545 128.826 226.584 128.788 227.086 128.865C227.452 128.903 228.109 128.672 229.112 128.17C234.091 125.584 237.236 122.381 239.725 117.422C241.674 113.504 242.639 110.166 243.99 102.66C244.492 99.9581 245.109 96.9478 245.379 95.9636C246.151 93.2042 245.9 92.8761 244.183 94.3234C242.523 95.7128 236.58 101.83 234.283 104.493C231.235 108.043 229.401 111.034 228.07 114.604L227.53 116.071L227.51 113.466C227.51 109.259 226.835 100.228 226.41 98.4143L226.295 97.9319L226.758 98.3564C227.182 98.7424 227.279 98.7424 227.954 98.5108C228.919 98.1828 230.559 96.8899 231.949 95.3847C235.576 91.4288 237.178 84.0381 236.618 73.8687C236.387 69.4883 235.827 62.2134 235.692 61.7696C235.518 61.1906 228.938 72.2478 226.931 76.4545C225.233 80.0823 225.021 81.1436 224.982 86.2573L224.963 89.8272L224.5 87.994C223.554 84.2697 222.821 81.6839 221.972 79.0403C221.027 76.0878 218.537 69.6427 217.65 67.8867C216.704 66.0149 217.032 66.3622 218.248 68.5428C219.541 70.8391 219.946 71.2057 220.66 70.7426C222.416 69.5848 225.195 62.6958 225.523 58.7206C225.581 57.9488 225.523 56.6559 225.407 55.8261C224.867 52.3913 223.072 45.7146 221.104 39.8869C219.869 36.2012 219.656 35.6995 219.29 35.6995C218.692 35.6995 215.971 42.2604 215.237 45.5409C214.562 48.474 214.562 60.4574 215.237 62.2713C215.392 62.7344 215.488 63.101 215.45 63.101C215.411 63.101 214.89 62.1748 214.292 61.0363C210.703 54.3403 206.187 47.7214 200.938 41.5078C198.604 38.7291 192.564 32.6506 189.997 30.47C188.511 29.2157 188.164 28.8298 188.453 28.7719C189.052 28.6754 189.245 28.4053 189.476 27.4597C189.766 26.3405 189.785 22.5969 189.495 21.3233C189.11 19.5287 188.28 17.9464 186.331 15.3413C184.748 13.2186 180.522 9.05049 178.303 7.41026C176.2 5.84721 171.8 3.08775 171.414 3.08775C171.028 3.08775 171.106 4.22627 171.665 6.42612C172.263 8.85753 173.537 13.1221 174 14.28C174.811 16.3061 176.431 18.7761 178.689 21.4584L179.558 22.4811L178.882 22.0373C177.319 21.0146 176.046 20.3006 172.128 18.1586L167.979 15.9009L167.844 14.7431C167.401 10.6907 164.004 6.71558 158.987 4.36136C157.27 3.55089 147.042 0.347595 145.306 0.0774384C144.65 -0.0383301 144.534 0.000259399 144.534 0.289719C144.534 1.17737 149.84 8.00847 152.928 11.1153C155.88 14.087 158.91 15.7658 162.982 16.6921L164.969 17.1359L169.369 20.1655C172.148 22.0759 173.556 23.1565 173.19 23.0793C170.334 22.5004 167.13 22.4425 164.178 22.9442C159.161 23.8126 151.133 26.3405 150.323 27.3053C149.821 27.9035 151.172 28.2123 157.096 28.8491C159.585 29.0999 162.653 29.4666 163.927 29.6403C168.944 30.2964 179.307 30.1806 181.487 29.4087C182.413 29.0999 182.336 29.0421 185.983 32.1103C189.206 34.7925 190.248 35.7574 189.785 35.603C185.597 34.1171 179.384 33.4224 173.363 33.7698C170.063 33.9435 169.041 34.175 169.041 34.7346C169.041 35.1592 169.485 35.4486 171.453 36.2784C172.302 36.6257 175.389 38.0344 178.303 39.3852C187.604 43.6691 190.923 44.6725 197.156 45.0778L199.163 45.2128L199.896 46.1005C201.845 48.474 206.091 54.2245 206.091 54.5139C206.091 54.5718 205.686 54.321 205.184 53.9543C203.717 52.9123 200.379 51.2142 197.967 50.3072C191.927 48.0109 185.057 46.4478 185.057 47.3548C185.057 47.5092 185.945 48.4161 187.045 49.3617C190.132 52.0439 199.144 59.4732 200.823 60.7082C204.643 63.5449 210.105 66.6903 212.246 67.2692L213.481 67.6165L214.157 69.0831C215.778 72.653 218.499 79.8507 217.997 79.3104C214.388 75.3739 212.439 73.56 210.278 72.1127C206.187 69.3725 198.333 65.3974 197.87 65.8412C197.677 66.0535 198.333 67.0569 199.839 68.7936C202.695 72.1127 205.107 75.5861 207.403 79.6964C208.098 80.9121 209.217 82.6488 209.912 83.5364C212.536 86.9134 217.688 91.6025 220.66 93.3392C221.355 93.7445 221.953 94.2076 222.011 94.362C222.204 94.9988 223.091 101.618 223.361 104.589C223.632 107.503 223.728 110.629 223.516 109.703C222.86 106.712 220.872 102.351 219.232 100.286C217.688 98.3564 206.94 87.473 206.747 87.6467C206.438 87.9747 210.896 102.139 212.845 107.001C215.237 112.983 218.595 118.464 222.204 122.323L223.4 123.597L223.246 125.14C222.802 129.482 221.412 137.954 221.104 138.282C221.065 138.32 220.93 137.452 220.795 136.371C220.313 132.049 219.155 129.038 215.469 122.651C212.053 116.688 209.719 113.196 209.294 113.331C208.947 113.447 208.947 115.183 209.275 120.702C209.757 128.981 210.317 135.773 210.741 138.648C211.301 142.334 213.81 148.374 215.99 151.249L216.897 152.484L215.816 155.109C214.157 159.142 209.217 169.002 209.834 167.073C209.892 166.88 210.047 165.76 210.162 164.583C210.49 161.496 210.278 155.649 209.757 152.832C208.213 144.437 206.129 138.629 205.068 139.69C204.952 139.806 204.759 140.887 204.624 142.122C204.373 144.264 203.987 146.135 201.961 155.012C200.591 161.033 200.263 163.175 200.167 166.783C200.051 170.681 200.321 172.572 201.595 176.239L202.424 178.728L201.421 180.002C199.414 182.568 194.435 188.338 194.223 188.338C194.185 188.338 194.242 188.048 194.339 187.701C195.69 183.012 196.172 175.293 195.574 167.69C195.4 165.297 195.207 163.329 195.188 163.29C195.149 163.252 194.59 164.294 193.934 165.606C191.85 169.678 188.569 175.583 187.257 177.589C183.533 183.282 182.587 186.447 182.124 194.976L181.892 199.337L179.191 201.228C175.775 203.621 171.163 206.535 171.009 206.38C170.97 206.342 171.241 205.898 171.607 205.377C173.768 202.347 176.065 197.079 177.242 192.39C177.763 190.364 178.747 184.575 178.651 184.247C178.554 183.977 168.25 193.953 165.432 197.041C159.354 203.737 157.559 206.766 156.807 211.668L156.575 213.115L153.7 214.06C152.098 214.582 149.512 215.353 147.911 215.759L145.016 216.492L145.885 215.797C149.126 213.173 153.526 207.673 155.533 203.698C156.17 202.444 157.057 199.781 157.077 199.105C157.077 199.028 156.054 199.453 154.819 200.051C151.616 201.556 150.149 202.174 146.174 203.679C139.999 205.994 137.741 207.384 134.77 210.741C132.068 213.79 130.351 216.685 130.505 217.881L130.601 218.576L129.424 218.711C128.787 218.769 125.932 218.827 123.095 218.827C119.178 218.827 117.885 218.769 117.769 218.576C117.692 218.46 117.229 217.418 116.727 216.28C116.244 215.141 115.531 213.713 115.183 213.115C112.713 209.043 108.97 206.458 101.502 203.679C97.3914 202.135 94.8057 201.035 92.49 199.781C91.3901 199.202 90.5025 198.816 90.5025 198.912C90.5025 199.414 91.3901 201.884 91.9883 203.1C94.0338 207.152 99.1089 213.443 102.312 215.894C102.833 216.28 103.181 216.627 103.084 216.666C102.698 216.781 94.5162 214.562 91.7568 213.559L90.9849 213.289L90.8498 211.88C90.3674 207.249 88.6307 204.123 83.3047 198.372C81.9733 196.944 78.2297 193.065 74.9878 189.785L69.0636 183.803L69.1794 184.671C69.9706 190.557 71.7652 197.137 73.7335 201.267C74.7562 203.389 75.4316 204.547 76.6666 206.265L77.4192 207.287L76.4929 206.747C72.8072 204.644 65.9954 200.186 65.706 199.723C65.6481 199.646 65.7639 198.855 65.9375 197.967C66.9603 192.544 64.3938 183.571 59.6275 176.007C58.2574 173.846 55.3436 168.558 53.7226 165.317C53.2595 164.39 52.7964 163.638 52.6999 163.638C52.3139 163.638 52.1403 178.149 52.4876 182.414C52.7192 185.25 53.2016 187.257 54.0314 188.955L54.6296 190.171L53.6261 189.206C52.1596 187.778 48.3195 183.456 46.5249 181.217L44.9811 179.268L45.3478 178.631C46.3705 177.01 47.4125 172.128 47.6055 168.153C47.7792 164.487 47.2389 160.955 44.9425 150.805C43.4953 144.495 42.8392 141.08 42.8392 139.922C42.8392 139.073 42.569 138.552 42.2603 138.861C42.1445 138.976 41.7007 139.864 41.2954 140.829C39.3078 145.46 36.8571 157.463 37.108 161.419C37.2238 163.001 38.0343 168.288 38.3237 169.157C38.3816 169.369 37.9764 168.79 37.4361 167.883C36.0467 165.587 32.4575 158.273 31.1839 155.147L30.1418 152.561L30.7979 152.06C32.9399 150.458 36.0467 144.148 36.7607 139.941C37.629 134.847 39.0763 114.45 38.5939 113.968C38.0728 113.447 35.3134 117.306 32.0136 123.211C28.27 129.926 27.1122 133.515 26.8421 139.227L26.7263 141.929L26.2825 140.096C25.279 135.985 24.3335 130.621 23.9282 126.781C23.8125 125.662 23.6774 124.504 23.6388 124.195C23.5616 123.713 23.5809 123.674 23.8318 123.886C24.2563 124.234 24.6808 123.79 27.3052 120.316C30.1418 116.534 32.6118 112.848 33.3837 111.227C33.9626 109.992 36.0081 104.493 36.4326 103.046C36.5291 102.679 36.9922 101.251 37.4168 99.8809C38.5746 96.2724 40.4657 89.9623 40.6779 88.9975C40.7937 88.5536 40.7937 88.187 40.7165 88.187C40.2341 88.187 31.6856 96.5618 29.6787 98.9932C26.7456 102.544 24.7194 106.828 23.6388 111.787C23.4458 112.617 23.2721 113.254 23.2335 113.215C23.0985 113.099 23.5423 105.361 23.8125 102.756C23.9668 101.367 24.2756 98.916 24.5264 97.2951C24.8738 94.9216 25.0089 94.362 25.2597 94.362C25.7228 94.362 26.9771 93.5901 28.984 92.1042C33.596 88.6694 36.9922 84.7328 42.9357 75.9335C44.4987 73.5985 46.7757 70.376 47.9914 68.7743C49.1878 67.1727 50.172 65.7254 50.172 65.5517C50.172 65.1272 49.5545 65.3395 47.1424 66.5552C42.6848 68.7936 36.1046 72.8846 33.8661 74.795C32.4575 76.0107 30.3541 78.4035 28.984 80.3524C28.5402 80.9892 28.1735 81.4524 28.1735 81.3945C28.1735 80.777 31.0874 73.0389 32.5346 69.7392L33.403 67.8095L34.5222 67.5779C36.5677 67.1534 41.2375 64.6641 45.7337 61.6152C48.8984 59.4539 50.886 57.9102 53.9349 55.1893C55.3243 53.9543 57.582 52.0439 58.9521 50.9054C61.9624 48.4547 62.5606 47.8758 62.4834 47.4899C62.3869 47.0074 60.5151 47.1425 57.6013 47.8372C51.3684 49.3231 46.2547 51.5422 41.9901 54.5911C41.1603 55.1893 40.292 55.8068 40.0797 55.9612C39.25 56.5594 45.3092 48.0109 47.3546 45.7339C47.8564 45.1742 47.895 45.155 49.7089 45.155C54.7261 45.155 60.3607 43.6691 66.6708 40.6781C68.4847 39.829 71.3793 38.4782 73.1353 37.7064C77.7665 35.6416 78.4419 35.2943 78.4998 34.8118C78.5384 34.4838 78.4033 34.3487 77.9209 34.1557C76.2035 33.5575 67.0954 33.5961 63.1009 34.2329C61.2677 34.5224 58.5082 35.2556 57.1575 35.796L56.4435 36.0854L57.4083 35.2171C58.8556 33.9049 62.4641 30.8753 63.7956 29.8718L64.9534 28.9842L66.4971 29.428C70.2793 30.5086 75.8175 30.5472 84.038 29.5245C90.4639 28.7333 93.9759 28.3667 95.3074 28.3474C96.5231 28.3474 97.6616 28.0193 97.7967 27.6334C97.9704 27.0545 91.448 24.5845 87.2992 23.6582C86.1414 23.3881 84.3468 23.0793 83.3047 22.9442C80.9119 22.6548 75.2386 22.8285 73.6177 23.2337C72.9809 23.3881 72.4406 23.4846 72.4213 23.4653C72.402 23.446 73.1353 22.8478 74.0615 22.1531C74.9878 21.4584 76.8982 20.0111 78.3068 18.9305C79.7348 17.8692 80.9698 17.0394 81.0663 17.0973C81.4715 17.3289 85.3502 16.7499 86.8168 16.2289C90.0007 15.1097 93.4549 12.5818 96.9283 8.83823C101.482 3.91753 103.663 0.714249 102.833 0.173935C102.505 -0.0383301 102.544 -0.0383301 101.598 0.309006Z" fill="black"/>
</svg>
