<svg xmlns="http://www.w3.org/2000/svg" width="256" height="179" viewBox="0 0 256 179" fill="none">
  <path d="M251.253 178.05C252.284 177.83 253.938 176.665 254.451 175.821C255.386 174.309 255.307 172.291 254.17 168.281C253.721 166.736 250.764 158.336 247.605 149.599C244.425 140.853 241.85 133.618 241.881 133.535C241.913 133.452 242.338 133.331 242.838 133.263C243.33 133.215 244.108 132.85 244.579 132.486C248.576 129.285 249.83 121.198 248.219 109.101C247.641 104.927 246.987 102.806 246.141 102.482C245.728 102.324 245.533 102.462 244.836 103.355C244.384 103.915 243.681 104.64 243.254 104.949C242.828 105.259 241.737 106.19 240.826 107.024C239.886 107.871 239.087 108.535 239.025 108.511C238.963 108.488 238.52 107.915 238.046 107.237C237.573 106.558 236.707 105.421 236.122 104.724C234.978 103.386 231.287 99.8644 230.812 99.6825C230.441 99.5401 230.543 99.2718 231.632 97.914C233.293 95.8051 234.356 92.1657 234.243 88.8798C234.125 84.929 232.295 80.4407 229.141 76.3204C226.794 73.2432 221.732 68.6045 219.55 67.5073C218.338 66.9009 217.27 66.8466 217.073 67.3624C216.993 67.5688 217.166 68.7237 217.475 69.9546C218.379 73.7093 218.323 74.6582 216.908 78.9676C215.389 83.5453 215.288 85.3526 216.258 88.8724C216.397 89.3753 216.469 89.8052 216.44 89.8179C216.383 89.8433 215.568 89.1286 214.628 88.2475C212.552 86.3156 212.121 85.464 212.481 83.9689C214.111 77.1857 213.159 70.9034 209.777 66.0804C208.679 64.4997 207.349 63.0906 205.285 61.3761C203.233 59.6901 202.967 58.9018 203.066 54.9397C203.115 53.207 203.121 51.6473 203.102 51.4506C203.008 50.8937 202.595 50.4277 202.188 50.4377C201.692 50.4366 199.705 52.9648 198.855 54.627C198.479 55.3589 198.147 55.9177 198.106 55.9019C198.064 55.8861 197.743 55.5501 197.376 55.149C196.53 54.209 195.023 53.6316 193.765 53.7646C193.224 53.8176 192.782 53.8609 192.761 53.853C192.74 53.8451 192.832 53.6673 192.981 53.464C193.436 52.8336 193.548 50.9358 193.196 49.8779C191.991 46.2917 187.197 45.7083 185.084 48.8744C184.236 50.159 184.116 51.4618 184.674 52.9066C185.22 54.323 185.533 54.6796 186.819 55.3383L187.865 55.8814L187.794 58.1028C187.657 61.9792 188.252 64.8108 190.098 68.95C191.477 72.0822 191.245 71.946 186.859 67.2114C185.049 65.2633 183.119 63.198 182.557 62.6274L181.532 61.5956L181.417 58.9951C181.196 54.5082 181.821 51.4579 183.766 47.6827C184.448 46.3348 184.573 45.8857 184.615 44.7892C184.735 41.7585 183.514 37.1013 181.852 34.2154C179.461 30.0799 175.034 24.525 172.422 22.3874C170.781 21.0485 170.561 21.1296 169.851 23.4137C169.337 25.0628 168.181 31.4124 167.783 34.8575C167.48 37.4394 167.434 40.5224 167.66 42.2183C167.848 43.6397 169.417 47.3889 170.288 48.5748L170.677 49.1028L170.013 49.4161C169.034 49.8694 168.311 50.7047 167.845 51.9222C166.468 55.5128 169.744 58.946 173.454 57.7884L174.426 57.4748L178.887 62.2617C181.338 64.8818 183.347 67.0486 183.331 67.0899C183.316 67.1312 182.171 66.5977 180.761 65.8916C179.364 65.214 176.732 63.992 174.878 63.2102C171.603 61.8127 171.487 61.7446 170.345 60.5257C168.14 58.1893 166.435 54.3641 165.553 49.8129C165.326 48.6136 165.055 47.4683 164.925 47.2526C164.547 46.6342 162.799 44.7099 161.656 43.6798C160.982 43.0903 160.66 42.6353 160.785 42.4939C160.881 42.3653 161.321 41.2795 161.78 40.0827C163.721 34.9571 163.978 27.1266 162.346 22.1224C161.478 19.4466 159.612 15.7961 157.35 12.3729C155.16 9.0718 154.434 8.2491 153.617 8.21985C153.26 8.225 152.917 8.37769 152.773 8.63014C152.637 8.86194 152.635 10.4708 152.742 12.1685C152.869 13.874 152.951 15.8224 152.923 16.4507C152.872 17.7566 152.146 20.3897 151.616 21.1567L151.266 21.6378L150.557 20.2772C149.13 17.5767 144.983 13.7621 140.199 10.7446C139.028 10.0351 137.254 8.85812 136.23 8.13412C135.198 7.43076 134.047 6.72911 133.675 6.58672C132.148 6.00131 131.387 6.75106 132.06 8.14502C132.302 8.6874 132.393 9.62186 132.317 11.1785C131.88 20.7149 134.318 28.9868 139.067 34.0733L140.509 35.6203L139.581 35.5722C138.529 35.4765 137.996 35.8167 137.998 36.5513C138.004 37.8317 142.077 46.47 144.438 50.1913L145.437 51.7817L144.717 51.6238C144.322 51.5433 142.615 51.0549 140.917 50.5458C139.219 50.0368 136.71 49.3588 135.354 49.0049L132.883 48.4126L130.829 46.2998C129.712 45.138 128.758 44.1093 128.72 44.0236C128.669 43.9094 129.353 42.6806 130.227 41.2643C131.779 38.7588 131.827 38.635 132.103 36.9893C133.137 30.7113 130.459 22.6316 124.679 14.6172C123.796 13.4028 122.998 12.458 122.884 12.5089C122.542 12.6616 118.507 23.4936 118.045 25.5647C117.449 28.1056 117.125 30.6796 117.232 32.0694C117.273 32.7008 117.891 34.5471 118.598 36.2853C119.299 37.9744 119.866 39.3986 119.842 39.4605C119.763 39.6668 117.212 37.8608 116.342 36.9827C115.546 36.1569 115.424 35.9207 115.338 34.5388C115.167 32.0828 115.539 29.6928 116.619 26.3199C117.424 23.7883 117.598 23.0265 117.568 21.8079C117.484 18.8171 116.169 15.0232 114.143 11.9742C112.431 9.40091 107.499 4.97786 103.976 2.86982C100.821 0.97401 97.2521 0.221058 96.6441 1.31337C96.4683 1.64835 96.6052 2.03217 97.3092 3.03578C97.8288 3.77936 98.4221 5.07186 98.7023 6.0077C99.169 7.63037 99.6958 11.9979 99.4595 12.1204C99.3818 12.1379 99.1259 11.7558 98.8969 11.242C97.7709 8.86952 95.3497 6.04786 92.9567 4.32575C91.1941 3.05832 86.7987 1.3733 84.2358 0.958807C79.97 0.293888 73.8822 0.492526 69.907 1.47744C66.8519 2.22335 66.9798 3.12444 70.3279 4.763C73.7919 6.46967 76.1938 9.09459 78.2342 13.4034C79.1487 15.3397 81.3646 17.5856 83.6524 18.8414L84.5669 19.3576L82.8661 19.534C81.9317 19.6255 80.6309 19.9316 79.9537 20.2163C78.0934 20.9942 78.0955 21.4211 79.9406 22.7201C81.2427 23.6453 83.5552 25.7626 83.9875 26.4254C84.1767 26.7346 83.7688 26.6255 81.8084 25.874C79.4068 24.977 79.3242 24.9453 76.3031 24.9232C72.2063 24.8674 69.038 25.1676 67.6138 25.734L66.4671 26.1938L65.2221 25.2432C64.201 24.4494 63.4278 24.0583 60.4976 22.9349L56.9895 21.5901L53.4908 21.4559C49.0145 21.2783 45.1955 21.4237 42.8747 21.8594C41.1392 22.1881 39.8705 22.7195 39.7043 23.1528C39.5777 23.483 40.7196 24.3941 42.801 25.5707C46.4304 27.6485 46.7052 27.9195 47.7903 30.5839C49.2873 34.2111 51.151 36.5113 54.2329 38.4738C56.7638 40.0832 58.9288 40.7948 62.9167 41.2585C64.8447 41.477 67.125 41.6411 67.9786 41.637L69.5256 41.6146L70.2626 42.3469L70.9917 43.0998L69.2941 43.2063C68.3548 43.2486 64.5916 43.5574 60.9139 43.828L54.2235 44.3636L52.4171 43.7658C50.368 43.1223 49.1024 42.1637 47.9946 40.4846C47.432 39.6062 47.4145 39.5285 47.8788 38.9965C48.4841 38.2818 48.8346 36.6884 48.6303 35.616C48.2968 33.8313 46.3038 32.2389 44.3379 32.2426C42.6385 32.2302 40.6347 33.8762 40.3461 35.4934C39.8477 38.2135 41.8132 40.7421 44.3407 40.6933C45.1531 40.6734 45.1944 40.6892 46.1209 42.0385C46.6533 42.8106 47.5127 43.7791 48.0812 44.2101C48.6212 44.6538 48.9881 45.0548 48.8819 45.0851C48.3838 45.2728 44.7286 45.6703 44.9236 45.5321C45.0615 45.4193 44.709 45.1658 43.9486 44.8033C43.0231 44.3774 42.6117 44.0304 42.1206 43.2741C41.0256 41.6236 38.3261 39.713 34.6987 38.062C29.0886 35.5326 21.2443 35.7443 11.9623 38.7183C8.94703 39.6689 2.8522 42.2317 2.95882 42.5093C3.08124 42.7455 9.11401 45.8393 13.3367 47.7895C15.2005 48.6697 16.7626 49.4105 16.788 49.4676C16.8007 49.4962 16.0382 50.1269 15.0965 50.8547C11.0285 53.9341 6.90293 58.1512 4.24463 61.9368C2.78081 64.0265 0.779045 67.5194 0.885671 67.7969C0.923831 67.8826 2.80754 68.155 5.06886 68.4302C7.31746 68.6769 9.21387 68.9778 9.30123 69.0587C9.5523 69.3916 7.75066 74.5233 6.64075 76.6777C6.06602 77.8064 5.62437 78.7732 5.64984 78.8303C5.76435 79.0872 9.58129 78.515 11.4371 77.9957C17.7232 76.1689 28.0708 69.6744 30.8148 65.8507C32.3436 63.7149 33.988 58.4993 33.7542 56.5162C33.6854 56.0165 35.334 53.0745 36.5587 51.4849C37.5617 50.1653 39.8822 48.0017 40.2805 48.0124C40.4487 48.0058 40.6932 48.1706 40.8029 48.3783C40.9587 48.6511 41.2713 48.6999 42.3279 48.5369C43.0529 48.4362 44.3952 48.4537 45.3204 48.5717C46.8502 48.7795 46.9565 48.7492 46.6101 48.3561C46.2511 47.9344 46.3288 47.9169 48.1104 47.6532C49.1511 47.5314 50.0237 47.4162 50.0856 47.44C50.1268 47.4558 49.366 48.2055 48.4023 49.1142C46.1547 51.2111 44.878 53.1831 43.9909 55.9909C43.2098 58.4607 42.8707 58.8514 39.6377 60.9255C37.291 62.4164 36.2654 63.3013 36.35 63.7597C36.3772 63.9358 36.9598 64.2065 37.9121 64.5006C40.0929 65.171 43.9439 65.2509 49.2762 64.7389C54.3055 64.2764 56.4073 63.7331 58.9379 62.1944C60.1224 61.5124 60.4285 61.3931 60.4701 61.7167C60.5644 62.2736 62.5199 62.9759 64.7066 63.1988C67.2678 63.4943 71.4407 63.4136 75.3626 63C78.166 62.7256 79.1272 62.5024 81.0288 61.7403C84.8272 60.1669 87.3115 58.2554 89.4549 55.1955C90.9552 53.0725 91.9152 50.1979 91.9933 47.6481C92.0081 46.6833 92.0563 45.7551 92.0989 45.5821C92.1495 45.3884 93.0062 45.3145 94.7802 45.3792C97.1905 45.4512 97.4333 45.4969 97.9702 46.0104C98.2862 46.2973 99.3073 47.0911 100.236 47.7549L101.953 48.9573L100.229 50.1191C97.1724 52.166 94.0409 55.5808 92.5272 58.4798L91.9002 59.6832L89.9662 59.9122C88.8969 60.0466 86.7618 60.5535 85.2344 61.0804C81.975 62.174 76.5051 64.5267 74.8655 65.5313C73.8729 66.1448 73.4922 66.2119 71.2391 66.2238C67.9928 66.2337 62.5436 65.7542 58.9396 65.1536C55.6482 64.6018 54.6566 64.7187 51.488 66.1312C47.8499 67.7187 42.6031 71.0326 41.2546 72.5748C40.0914 73.8803 39.2845 74.565 38.0319 75.3629L36.8886 76.0607L37.1558 76.6602C37.4103 77.2311 37.6501 77.3467 40.5803 78.47C42.3137 79.1346 44.0295 79.7213 44.4326 79.7812L45.1483 79.8899L44.845 81.0517C44.3411 83.107 42.7771 86.5074 41.8041 87.6255C40.633 88.9516 39.1617 89.9497 37.7309 90.3479C36.435 90.7032 35.766 91.2751 35.5369 92.1813C35.4011 92.721 35.4726 92.843 36.0886 93.1502C37.5681 93.8594 42.0158 94.0497 47.4561 93.6265C49.26 93.4896 50.7895 93.3896 50.8514 93.4133C50.9133 93.4371 50.4562 94.7529 49.8058 96.326L48.6363 99.1913L49.0181 100.048C49.5828 101.353 49.9398 101.348 51.8328 99.9907C52.7714 99.3327 55.0675 98.0355 56.9546 97.1259C60.6354 95.3654 62.6062 93.9907 65.142 91.389C67.597 88.8746 68.2512 87.8473 69.4822 84.6979C70.5027 82.036 70.5533 81.8423 70.4264 80.4446C70.2301 77.9315 70.4124 76.3446 71.2142 73.8828C72.2089 70.8559 73.1056 69.5665 75.1461 68.195C77.9065 66.3657 85.6223 63.2172 89.1662 62.493C89.907 62.351 90.5416 62.2392 90.5828 62.255C90.6447 62.2788 90.653 62.5659 90.6041 62.8786C90.5491 63.3308 90.3431 63.5596 89.5486 63.965C87.6948 64.9111 83.6876 68.5109 81.3233 71.3442C80.0081 72.9228 78.2055 77.131 77.8701 79.4876C77.5251 81.7459 77.8682 85.049 78.6878 87.2329C79.0299 88.1925 79.3371 88.9966 79.3291 89.0172C79.3419 89.0458 78.7314 90.8236 77.9991 92.9807C76.4506 97.452 76.4334 97.6821 77.8549 97.4933C79.5429 97.2884 83.3451 94.8408 87.0623 91.6268L88.9106 90.0159L89.3859 90.8135C89.974 91.749 89.9974 92.7994 89.5055 95.6877C88.8829 99.4726 89.0689 99.8516 90.897 98.5406C92.465 97.4139 94.6741 94.9236 97.0552 91.5525C98.7488 89.1722 99.2048 88.3529 99.8693 86.6195C100.89 83.9576 101.192 81.8723 100.954 79.0356C100.626 75.0756 98.7107 71.7377 95.5112 69.5881C94.9475 69.2063 94.3232 68.612 94.1372 68.233C93.9432 67.8746 93.4728 67.1262 93.0913 66.5776L92.3667 65.5661L92.8235 63.9424C93.2644 62.36 93.6748 61.7836 94.2113 61.9893C94.7478 62.195 102.333 61.3632 104.558 60.8673C107.59 60.1833 111.173 58.7402 113.356 57.3051L114.934 56.2768L116.206 56.5991C117.133 56.8361 118.176 56.8333 120.081 56.6171C121.966 56.3929 122.581 56.3922 122.375 56.6209C121.619 57.4198 121.151 58.2105 121.045 58.8564C120.682 61.0369 122.183 63.1741 124.49 63.8221C126.044 64.2758 127.72 64.0423 128.898 63.1922C129.49 62.7568 129.838 62.6533 130.033 62.8228C130.753 63.4773 135.429 65.2937 137.433 65.6835C138.536 65.8933 139.685 66.1681 139.974 66.2789C140.263 66.3896 140.522 66.3941 140.569 66.2703C140.609 66.1671 140.752 66.1035 140.875 66.1509C141.041 66.2142 141.009 66.2968 140.793 66.4271C140.643 66.5114 139.88 67.1421 139.143 67.83C137.891 68.9357 137.748 68.9993 137.635 68.5536C137.57 68.2918 137.557 67.9555 137.612 67.811C137.667 67.6666 137.098 67.7322 136.305 67.9489C133.285 68.8503 130.43 68.3948 125.313 66.2441C121.886 64.8119 121.548 64.706 120.103 64.6488C117.791 64.5673 115.855 64.9851 113.151 66.1733C109.983 67.5857 107.105 69.5357 103.783 72.5223C100.14 75.7885 100.276 75.5567 101.439 76.4757C103.717 78.2487 106.931 79.9303 110.016 81.0186L112.999 82.0673L111.728 85.012C111.033 86.6391 109.694 89.6997 108.748 91.7983C107.822 93.9049 107.08 95.6558 107.105 95.7129C107.11 95.762 107.756 95.8676 108.479 95.9557C111.542 96.3014 116.033 95.5143 121.289 93.7188L124.316 92.6778L124.397 94.3183C124.555 97.0536 124.205 99.2626 123.224 101.514C122.545 103.099 122.221 103.638 121.455 104.338C120.937 104.826 120.548 105.221 120.61 105.245C121.002 105.396 125.092 104.668 126.984 104.115C131.165 102.901 134.912 100.29 137.399 96.8888C138.965 94.7197 140.911 89.6434 141.26 86.8187C141.4 85.7126 141.526 84.7668 141.549 84.7049C141.573 84.643 141.821 85.3536 142.102 86.2894C143.099 89.6775 144.967 92.8313 147.411 95.2833C148.926 96.7636 150.039 98.184 151.801 100.872L153.275 103.14L153.934 102.778C155.059 102.191 155.861 100.653 157.517 95.9624C158.37 93.6148 159.029 91.5244 159.047 91.2943C159.026 90.9786 159.259 90.926 160.228 90.99C160.89 91.0543 161.454 91.1283 161.466 91.1568C161.479 91.1854 161.207 91.649 160.828 92.1429C160.462 92.6653 159.594 94.2497 158.909 95.6674C158.195 97.0978 157.202 99.1314 156.672 100.206C154.816 103.873 154.553 105.24 155.522 105.612C155.749 105.699 156.906 105.337 158.125 104.811C160.785 103.677 164.252 102.473 165.869 102.146C171.855 100.915 176.352 97.6444 178.005 93.3316C178.772 91.3299 178.96 89.7922 178.61 88.0488C178.301 86.5101 178.17 84.8743 178.321 84.4823C178.36 84.3791 178.974 85.3717 179.686 86.6625C181.292 89.5739 182.566 91.4352 183.991 92.9045L185.095 94.0378L184.061 94.6355C177.772 98.2601 173.471 101.7 171.203 104.901C170.084 106.46 169.337 108.162 169.343 109.135L169.344 109.751L170.519 109.586C171.187 109.51 172.916 109.014 174.402 108.471C177.011 107.53 177.11 107.521 179.092 107.783C181.045 108.059 181.985 108.325 186.501 109.819L188.624 110.515L187.446 112.477C186.291 114.378 184.323 119.019 184.509 119.398C184.603 119.647 189.552 119.084 192.011 118.535C193.071 118.302 195.117 117.595 196.544 116.959C198.6 116.043 199.426 115.555 200.572 114.48L202.002 113.158L203.335 109.74C204.055 107.863 204.701 106.24 204.777 106.104C205.057 105.619 206.832 104.88 208.041 104.751C209.131 104.625 209.678 104.74 212.14 105.542C213.699 106.045 215.121 106.472 215.281 106.486C215.511 106.503 215.537 107.176 215.399 108.709C215.298 109.9 215.279 111.739 215.344 112.805L215.49 114.708L214.333 114.146C212.621 113.3 211.487 112.061 210.801 110.33C210.482 109.498 210.212 108.471 210.239 108.032C210.313 106.664 209.24 106.253 208.389 107.299C207.99 107.785 207.91 108.18 207.829 109.688C207.529 115.348 209.152 122.597 211.879 127.832C213.876 131.698 215.631 133.602 218.956 135.61C220.748 136.676 225.496 138.307 227.218 138.446C227.908 138.498 229.505 138.778 230.765 139.072C233.272 139.631 233.585 139.68 234.799 139.601L235.627 139.54L236.033 140.642C237.349 144.247 246.61 173.122 246.9 174.464C247.272 176.335 247.779 177.05 249.179 177.658C250.187 178.115 250.582 178.195 251.253 178.05ZM62.9142 59.2928C64.5117 57.6567 65.372 56.4007 66.2979 54.2942C67.3662 51.8162 67.7163 49.915 67.5723 47.3272L67.5008 45.7851L69.2476 45.6737C72.5239 45.4622 75.3417 45.3354 75.3799 45.421C75.4053 45.4781 74.9138 45.8341 74.3003 46.2616C71.6207 48.0035 69.6592 50.5888 68.2906 54.1587C67.452 56.3461 67.3 56.6192 66.4804 57.2754C65.6894 57.9188 62.477 60.0009 62.3326 59.9455C62.3119 59.9376 62.5702 59.6343 62.9142 59.2928ZM139.113 76.2442C138.17 72.9005 137.938 71.652 138.31 71.7944C138.475 71.8577 138.901 71.5478 139.308 71.0412C140.277 69.874 143.125 67.6289 143.253 67.9143C143.469 68.3996 142.853 72.0449 142.146 74.5669C141.419 77.081 141.096 79.1583 141.152 81.0496L141.166 82.0016L140.485 80.3205C140.106 79.3943 139.501 77.5766 139.113 76.2442ZM95.3515 58.5211C96.8164 55.9348 100.202 52.7831 103.443 50.9961L104.168 50.5876L107.421 52.4738C109.222 53.519 111.022 54.5643 111.444 54.8208L112.173 55.2659L110.605 56.0848C108.515 57.1533 106.118 58.0333 103.885 58.5499C101.97 58.9756 95.6225 59.6664 95.14 59.5051C94.9336 59.426 94.9714 59.2038 95.3515 58.5211ZM214.239 99.6958C212.297 98.5254 211.131 97.0606 209.651 94.0078C207.26 89.0679 205.772 87.4559 201.616 85.2708C198.055 83.3849 195.123 82.4504 191.987 82.1714C188.922 81.8955 184.966 81.9649 181.409 82.3527L178.598 82.6478L178.703 82.0019C178.984 80.4053 181.421 77.1976 182.164 77.4824C182.35 77.5536 182.843 77.3166 183.285 76.9655C185.877 74.8349 191.855 75.5408 197.585 78.6841C198.391 79.1116 199.512 79.707 200.053 79.9619C200.615 80.2246 201.852 81.1959 202.905 82.215C205.315 84.5115 207.653 86.378 210.122 87.9636C212.313 89.348 213.336 90.2608 216.432 93.4831L218.498 95.6245L217.847 97.6943C217.165 99.9655 216.964 100.551 216.828 100.783C216.728 100.981 215.56 100.51 214.239 99.6958ZM155.664 72.4593C155.232 72.1044 154.287 71.4818 153.551 71.0574C152.814 70.633 151.759 69.8027 151.192 69.1829C150.037 67.9355 148.503 65.454 148.516 64.8669C148.499 64.6004 149.11 64.2427 150.591 63.6508C153.305 62.561 157.039 61.3415 159.464 60.7565L161.415 60.2974L165.233 61.761C172.517 64.5535 186.762 71.2925 188.693 72.8612C189.104 73.2082 189.117 73.2367 188.669 73.2309C186.838 73.1916 184.971 73.4936 183.767 73.9788C182.343 74.5452 182.343 74.5452 182.2 73.9932C182.112 73.6046 181.837 73.3335 181.404 73.1674C180.682 72.8905 178.704 71.2568 176.424 69.057C174.505 67.209 171.963 65.6902 168.628 64.388C166.118 63.4022 165.813 63.3327 163.629 63.2288C159.32 63.0447 152.953 63.2309 151.924 63.57C150.674 63.9903 150.473 64.576 151.294 65.4589C151.615 65.7949 154.069 67.7296 156.749 69.7512C159.43 71.7729 161.745 73.5126 161.887 73.6378C162.09 73.7867 161.557 74.1268 160 74.8552L157.843 75.8509L157.134 74.4903C156.741 73.7243 156.075 72.8063 155.664 72.4593ZM72.5732 41.1972C71.6852 40.2414 71.6676 40.1637 71.7292 38.4595C71.8287 35.1131 71.0608 32.2388 69.3395 29.5671L68.4701 28.1924L69.3227 28.685C71.9582 30.145 72.387 30.5698 73.297 32.7647C74.7638 36.2856 76.6161 38.3685 80.0041 40.2117C82.3125 41.4753 85.8643 42.1505 90.6514 42.258C91.7843 42.2663 92.3525 42.3894 92.4288 42.5607C92.5179 42.7605 92.1372 42.8276 91.2248 42.7381C90.4726 42.6628 89.0683 42.6215 88.0878 42.6479C83.2992 42.7293 75.9388 42.9135 75.2169 42.9444C74.3062 42.974 74.0744 42.8378 72.5732 41.1972ZM130.973 60.556C130.749 60.3992 130.614 60.1343 130.677 59.9693C130.859 59.4946 130.058 57.6962 129.341 56.9719C128.966 56.5915 128.254 56.1051 127.779 55.9232L126.871 55.5751L130.467 54.7763C132.439 54.3251 135.191 53.6287 136.573 53.2353L139.103 52.501L142.182 53.4211C146.485 54.6683 157.41 58.6437 157.039 58.8092C156.876 58.8649 155.81 59.2373 154.633 59.5908C153.477 59.9523 151.264 60.7845 149.746 61.4098C148.221 62.0556 146.877 62.5347 146.733 62.4793C146.609 62.4318 145.779 62.6818 144.89 63.0271C143.359 63.6238 141.089 63.8659 140.181 63.5178C139.727 63.3438 138.51 62.0726 138.443 61.6918C138.421 61.5649 138.638 61.2458 138.921 60.9995C139.541 60.4324 140.212 58.8672 140.198 57.9152C140.219 56.503 138.914 54.5354 137.684 54.0401C135.455 53.1857 132.874 54.3024 132.014 56.4818C131.563 57.6581 131.797 59.3334 132.572 60.4591C133.164 61.3247 133.346 61.4658 134.757 61.9831C135.756 62.3421 136.289 62.6176 136.234 62.7621C136.139 63.0097 131.778 61.1723 130.973 60.556ZM94.5585 41.389C94.0863 40.5216 93.7806 39.5286 93.6939 38.6434C93.6296 37.885 93.3029 36.5763 92.9576 35.6866L92.3276 34.1196L95.2021 35.0796C99.083 36.378 101.111 36.7058 103.808 36.4617C106.014 36.2657 109.092 36.2624 111.553 36.4485L112.864 36.5486L113.604 37.5189C114.232 38.3512 115.493 39.5684 116.622 40.4509C116.771 40.5555 115.777 40.7422 114.457 40.8515C111.845 41.0575 107.63 41.9268 104.897 42.82C103.521 43.2626 102.783 43.3348 100.495 43.1913C98.9951 43.0898 97.3893 43.0186 96.934 43.0333C95.625 43.0522 95.3677 42.8589 94.5585 41.389ZM194.661 72.0486C192.902 69.5991 191.334 66.1577 190.707 63.4087C190.449 62.2919 190.291 61.2845 190.322 61.202C190.362 61.0988 190.689 61.2952 191.03 61.6392C191.971 62.5203 193.829 63.0435 195.101 62.7501L196.133 62.5301L195.91 64.7168C195.781 66.0402 195.831 68.3789 196.035 70.5636C196.22 72.5515 196.317 74.1507 196.255 74.127C196.172 74.0954 195.465 73.1616 194.661 72.0486Z" fill="#8C6537"/>
</svg>